<svg width="109" height="109" fill="none" xmlns="http://www.w3.org/2000/svg"><path d="M87.33 0H20.92C9.385 0 0 9.378 0 20.909v66.38c0 11.53 9.385 20.909 20.92 20.909h66.412c11.536 0 20.918-9.378 20.918-20.909V20.906C108.248 9.376 98.865 0 87.33 0Zm6 12.469 2.393-.009V30.8l-18.287.059-.063-18.338 15.957-.052ZM38.675 42.993c3.467-4.795 9.092-7.94 15.45-7.94 6.358 0 11.983 3.145 15.446 7.94 2.255 3.13 3.607 6.958 3.607 11.105 0 10.5-8.554 19.043-19.055 19.043-10.507 0-19.053-8.543-19.053-19.043.002-4.147 1.349-7.975 3.605-11.105Zm59.027 44.295c0 5.72-4.654 10.366-10.372 10.366H20.92c-5.72 0-10.373-4.646-10.373-10.366V42.993h16.157a29.42 29.42 0 0 0-2.178 11.105c0 16.31 13.275 29.588 29.6 29.588 16.321 0 29.597-13.278 29.597-29.588 0-3.926-.789-7.674-2.184-11.105h16.163v44.295Z" fill="#545151"/></svg>