<svg width="123" height="101" fill="none" xmlns="http://www.w3.org/2000/svg"><path d="M122.933 11.934a49.836 49.836 0 0 1-14.486 4.007 25.453 25.453 0 0 0 11.089-14.083 50.206 50.206 0 0 1-16.016 6.18C98.922 3.092 92.366 0 85.112 0 71.185 0 59.893 11.395 59.893 25.452a25.7 25.7 0 0 0 .654 5.8C39.585 30.189 20.999 20.058 8.559 4.659a25.5 25.5 0 0 0-3.413 12.798A25.5 25.5 0 0 0 16.365 38.64 24.979 24.979 0 0 1 4.94 35.455c-.003.106-.003.214-.003.322 0 12.33 8.694 22.614 20.234 24.956a25.15 25.15 0 0 1-6.646.892c-1.627 0-3.206-.159-4.746-.458 3.212 10.11 12.524 17.472 23.56 17.675C28.707 85.67 17.835 89.74 6.017 89.74c-2.034 0-4.043-.12-6.017-.358 11.164 7.225 24.42 11.436 38.662 11.436 46.392 0 71.758-38.781 71.758-72.416 0-1.103-.022-2.203-.069-3.296a51.347 51.347 0 0 0 12.582-13.17Z" fill="#545151"/></svg>