<svg width="368" height="361" fill="none" xmlns="http://www.w3.org/2000/svg"><g clip-path="url(#Group 2163__a)" fill="#000"><path opacity=".33" d="M82.947 0h80.793c1.52 0 2.026.506 1.899 1.899-.126 2.151-.126 4.303-.126 6.329V151.64c0 2.152-.127 4.304 0 6.582.126 1.393-.38 1.899-1.9 1.899-3.672-.126-7.344 0-10.89 0H1.268c-.886 0-1.393-.506-1.393-1.392v-1.266C.002 105.693.002 54.049.002 2.278.002 0 .002 0 2.282 0h80.665Zm.001 201.385h81.3c1.013 0 1.393.38 1.393 1.266v156.578c.126 1.39-.507 1.771-1.773 1.771H1.649c-1.013 0-1.646-.507-1.52-1.645V203.917c0-2.532 0-2.532 2.533-2.532h80.286Zm205.017 0h77.628c2.405 0 2.405 0 2.405 2.279V358.47c0 2.404-.126 2.53-2.405 2.53H209.958c-2.026 0-2.026 0-2.026-2.026V203.411c0-2.026 0-2.026 2.152-2.026h77.881Z"/></g><defs><clipPath id="Group 2163__a"><path fill="#fff" d="M0 0h368v361H0z"/></clipPath></defs></svg>